<svg xmlns="http://www.w3.org/2000/svg" width="33.289" height="33.289" viewBox="0 0 33.289 33.289">
  <path id="Icon_awesome-behance-square" data-name="Icon awesome-behance-square" d="M13.858,21.644c0,1.434-1.04,1.887-2.318,1.887H8.189V19.6h3.418C12.989,19.608,13.858,20.181,13.858,21.644Zm-.572-6.116c0-1.315-1.018-1.627-2.148-1.627H8.2v3.329h3.173c1.122,0,1.917-.49,1.917-1.7Zm9.831,1.724a2.215,2.215,0,0,0-2.356,2.207h4.622A2.118,2.118,0,0,0,23.117,17.253ZM33.29,5.817V31.973a3.568,3.568,0,0,1-3.567,3.567H3.567A3.568,3.568,0,0,1,0,31.973V5.817A3.568,3.568,0,0,1,3.567,2.25H29.723A3.568,3.568,0,0,1,33.29,5.817Zm-13.1,7.8h5.781v-1.4H20.189Zm-3.2,8.2a3.694,3.694,0,0,0-2.6-3.834,2.774,2.774,0,0,0,1.947-2.749c0-2.839-2.118-3.53-4.563-3.53H5.053V25.969h6.918C14.564,25.954,16.994,24.713,16.994,21.815Zm11.243-1.1c0-3.054-1.791-5.6-5.023-5.6a5.186,5.186,0,0,0-5.283,5.469c0,3.218,2.029,5.424,5.283,5.424a4.607,4.607,0,0,0,4.837-3.478h-2.5A2.35,2.35,0,0,1,23.3,23.874a2.331,2.331,0,0,1-2.534-2.623h7.446C28.222,21.08,28.237,20.894,28.237,20.716Z" transform="translate(0 -2.25)" fill="#fff"/>
</svg>
