<svg xmlns="http://www.w3.org/2000/svg" width="33.301" height="33.292" viewBox="0 0 33.301 33.292">
  <path id="Icon" data-name="Icon awesome-instagram" d="M16.649,10.348a8.536,8.536,0,1,0,8.536,8.536A8.522,8.522,0,0,0,16.649,10.348Zm0,14.085a5.549,5.549,0,1,1,5.55-5.549,5.559,5.559,0,0,1-5.55,5.549ZM27.525,10a1.991,1.991,0,1,1-1.991-1.991A1.986,1.986,0,0,1,27.525,10Zm5.654,2.021a9.852,9.852,0,0,0-2.689-6.976,9.918,9.918,0,0,0-6.976-2.689c-2.749-.156-10.988-.156-13.736,0A9.9,9.9,0,0,0,2.8,5.036C.847,6.983.245,9.345.112,12.012-.044,14.761-.044,23,.112,25.748A9.852,9.852,0,0,0,2.8,32.723a9.931,9.931,0,0,0,6.976,2.689c2.749.156,10.988.156,13.736,0a9.853,9.853,0,0,0,6.976-2.689,9.917,9.917,0,0,0,2.689-6.976c.156-2.749.156-10.98,0-13.728ZM29.628,28.7a5.618,5.618,0,0,1-3.165,3.165c-2.192.869-7.392.669-9.814.669s-7.63.193-9.814-.669A5.618,5.618,0,0,1,3.67,28.7C2.8,26.505,3,21.305,3,18.883s-.193-7.629.669-9.813A5.618,5.618,0,0,1,6.835,5.906c2.192-.869,7.392-.669,9.814-.669s7.63-.193,9.814.669A5.618,5.618,0,0,1,29.628,9.07c.869,2.191.669,7.392.669,9.813S30.5,26.513,29.628,28.7Z" transform="translate(0.005 -2.238)" fill="#fff"/>
</svg>
