<svg xmlns="http://www.w3.org/2000/svg" width="33.294" height="33.292" viewBox="0 0 33.294 33.292">
  <path id="Icon" data-name="Icon ionic-logo-linkedin" d="M35.131,4.5H7.345A2.716,2.716,0,0,0,4.5,7.093V34.939a2.929,2.929,0,0,0,2.845,2.853H35.123a2.781,2.781,0,0,0,2.671-2.853V7.093A2.553,2.553,0,0,0,35.131,4.5ZM14.82,32.25H10.05V17.421h5.77ZM12.6,15.167h-.035a2.448,2.448,0,0,1-2.515-2.558,2.463,2.463,0,0,1,2.576-2.558,2.457,2.457,0,0,1,2.55,2.558A2.463,2.463,0,0,1,12.6,15.167ZM32.252,32.25h-4.77V24.142c0-1.943-.694-3.269-2.42-3.269a2.61,2.61,0,0,0-2.446,1.76,3.211,3.211,0,0,0-.165,1.171V32.25h-4.77V17.421h5.77v2.064a4.828,4.828,0,0,1,4.3-2.411c3.131,0,5.5,2.064,5.5,6.513V32.25Z" transform="translate(-4.5 -4.5)" fill="#fff"/>
</svg>
