<svg xmlns="http://www.w3.org/2000/svg" width="6.062" height="6.615" viewBox="0 0 6.062 6.615">
  <path id="Icon_ionic-ios-moon" data-name="Icon ionic-ios-moon" d="M11.16,9.495c-.05,0-.1,0-.15,0a3.036,3.036,0,0,1-2.184-.92,3.138,3.138,0,0,1-.9-2.218A3.177,3.177,0,0,1,8.224,5a4.489,4.489,0,0,1,.234-.4A.068.068,0,0,0,8.391,4.5,3.331,3.331,0,0,0,8.9,11.11a3.247,3.247,0,0,0,2.5-1.173,3.146,3.146,0,0,0,.282-.375.069.069,0,0,0-.071-.105A2.941,2.941,0,0,1,11.16,9.495Z" transform="translate(-5.625 -4.496)" fill="#fff"/>
</svg>
