<svg xmlns="http://www.w3.org/2000/svg" width="25.66" height="25.66" viewBox="0 0 25.66 25.66">
  <path id="Icon" data-name="Icon awesome-football-ball" d="M24.91,3.268a2.732,2.732,0,0,0-1.93-1.935A23.181,23.181,0,0,0,17.559.563l8.1,8.112a23.242,23.242,0,0,0-.75-5.406ZM.75,23.517a2.732,2.732,0,0,0,1.93,1.935,23.181,23.181,0,0,0,5.422.771L0,18.111A23.242,23.242,0,0,0,.75,23.517ZM.217,14.81,11.4,26.016A16.439,16.439,0,0,0,25.448,11.975L14.258.769A16.428,16.428,0,0,0,.217,14.81ZM16.633,8.416a.415.415,0,0,1,.585,0L17.8,9a.415.415,0,0,1,0,.585l-1.464,1.464L17.8,12.513a.415.415,0,0,1,0,.585l-.585.585a.415.415,0,0,1-.585,0l-1.464-1.464L14,13.393l1.464,1.464a.415.415,0,0,1,0,.585l-.585.585a.415.415,0,0,1-.585,0L12.83,14.562l-1.169,1.169L13.125,17.2a.415.415,0,0,1,0,.585l-.585.585a.415.415,0,0,1-.585,0L10.492,16.9,9.028,18.364a.415.415,0,0,1-.585,0l-.585-.585a.415.415,0,0,1,0-.585l1.464-1.464L7.858,14.272a.415.415,0,0,1,0-.585l.585-.585a.415.415,0,0,1,.585,0l1.464,1.464L11.661,13.4,10.2,11.934a.415.415,0,0,1,0-.585l.585-.585a.415.415,0,0,1,.585,0l1.464,1.464L14,11.059,12.535,9.6a.415.415,0,0,1,0-.585l.585-.585a.415.415,0,0,1,.585,0L15.168,9.89Z" transform="translate(0 -0.563)" fill="#fff"/>
</svg>
