<svg xmlns="http://www.w3.org/2000/svg" width="25.66" height="25.66" viewBox="0 0 25.66 25.66">
  <path id="Icon_awesome-user-circle" data-name="Icon awesome-user-circle" d="M12.83.563a12.83,12.83,0,1,0,12.83,12.83A12.828,12.828,0,0,0,12.83.563Zm0,4.966a4.553,4.553,0,1,1-4.553,4.553A4.553,4.553,0,0,1,12.83,5.529Zm0,17.8A9.914,9.914,0,0,1,5.251,19.8a5.768,5.768,0,0,1,5.1-3.094,1.266,1.266,0,0,1,.367.057,6.85,6.85,0,0,0,2.116.357,6.824,6.824,0,0,0,2.116-.357,1.266,1.266,0,0,1,.367-.057,5.768,5.768,0,0,1,5.1,3.094A9.914,9.914,0,0,1,12.83,23.326Z" transform="translate(0 -0.563)" fill="#fff"/>
</svg>
